<?xml version="1.0" ?><!DOCTYPE svg  PUBLIC '-//W3C//DTD SVG 20010904//EN'  'http://www.w3.org/TR/2001/REC-SVG-20010904/DTD/svg10.dtd'><svg height="512.000000pt" preserveAspectRatio="xMidYMid meet" version="1.0" viewBox="0 0 512.000000 512.000000" width="512.000000pt" xmlns="http://www.w3.org/2000/svg"><g  stroke="none" transform="translate(0.000000,512.000000) scale(0.100000,-0.100000)"><path d="M2285 4898 c-311 -35 -683 -165 -955 -333 -220 -137 -472 -361 -622 -555 -256 -331 -417 -712 -480 -1135 -20 -136 -17 -512 5 -655 103 -665 471 -1245 1027 -1616 287 -191 623 -320 966 -371 164 -24 504 -24 668 0 411 61 815 237 1136 494 459 368 764 897 857 1485 25 159 25 537 0 696 -83 524 -329 995 -708 1356 -370 352 -861 581 -1361 635 -114 13 -419 12 -533 -1z m947 -1115 l529 -528 -3 -765 c-3 -711 -4 -768 -21 -805 -24 -54 -82 -113 -137 -139 -44 -20 -60 -21 -512 -24 -441 -3 -467 -2 -472 15 -12 38 -56 208 -56 215 0 4 215 9 478 10 l477 3 3 747 2 747 -312 3 c-353 3 -349 3 -435 87 -68 65 -73 96 -73 438 l0 293 -370 0 c-355 0 -370 -1 -380 -19 -6 -13 -10 -188 -10 -500 l0 -481 -62 0 c-35 0 -87 -7 -115 -14 l-53 -14 0 531 c0 601 -3 576 80 656 71 69 76 69 520 70 l394 1 528 -527z m-1210 -804 c180 -38 334 -189 383 -376 68 -260 -98 -539 -360 -608 -73 -18 -193 -19 -260 -1 -217 57 -367 239 -382 461 -13 186 74 349 245 463 94 63 247 87 374 61z m404 -1040 c30 -112 94 -355 141 -539 47 -184 90 -352 95 -373 18 -64 28 -68 -209 71 -67 40 -128 75 -136 77 -9 4 -23 -12 -42 -47 -74 -140 -180 -307 -186 -296 -4 7 -34 117 -67 243 -33 127 -94 361 -136 521 -42 160 -76 296 -76 301 0 6 34 8 83 5 98 -5 172 8 253 47 65 31 161 113 195 167 12 19 23 33 26 31 2 -3 29 -96 59 -208z m-801 61 c4 -6 30 -24 58 -40 l51 -29 82 -310 83 -310 -39 -147 c-21 -80 -41 -148 -43 -151 -3 -2 -17 18 -32 44 -16 26 -52 89 -82 140 l-53 91 -78 -42 c-42 -24 -108 -62 -146 -85 -63 -39 -68 -41 -62 -19 27 103 136 510 178 671 49 184 64 218 83 187z"/></g></svg>